<mxfile host="Electron" modified="2024-10-08T14:38:50.060Z" agent="Mozilla/5.0 (Macintosh; Intel Mac OS X 10_15_7) AppleWebKit/537.36 (KHTML, like Gecko) draw.io/24.5.1 Chrome/124.0.6367.207 Electron/30.0.6 Safari/537.36" etag="kd5SpZGujqPf7RXXG2i8" version="24.5.1" type="device">
  <diagram name="Page-1" id="sc0NB0kGcLTYnHtYR346">
    <mxGraphModel dx="2726" dy="2477" grid="0" gridSize="10" guides="1" tooltips="1" connect="1" arrows="1" fold="1" page="0" pageScale="1" pageWidth="1654" pageHeight="1169" math="0" shadow="0">
      <root>
        <mxCell id="0" />
        <mxCell id="1" parent="0" />
        <mxCell id="_FnlPTHiWod3dSxRK6xL-5" value="" style="ellipse;whiteSpace=wrap;html=1;align=center;aspect=fixed;fillColor=none;strokeColor=none;resizable=0;perimeter=centerPerimeter;rotatable=0;allowArrows=0;points=[];outlineConnect=1;" parent="1" vertex="1">
          <mxGeometry x="610" y="490" width="10" height="10" as="geometry" />
        </mxCell>
        <mxCell id="_FnlPTHiWod3dSxRK6xL-27" value="Patient" style="shape=umlFrame;whiteSpace=wrap;html=1;pointerEvents=0;recursiveResize=0;container=1;collapsible=0;width=160;" parent="1" vertex="1">
          <mxGeometry x="50" y="68" width="1040" height="432" as="geometry" />
        </mxCell>
        <mxCell id="_FnlPTHiWod3dSxRK6xL-38" style="rounded=0;orthogonalLoop=1;jettySize=auto;html=1;" parent="_FnlPTHiWod3dSxRK6xL-27" source="_FnlPTHiWod3dSxRK6xL-21" edge="1">
          <mxGeometry relative="1" as="geometry">
            <mxPoint x="170" y="189" as="targetPoint" />
          </mxGeometry>
        </mxCell>
        <mxCell id="_FnlPTHiWod3dSxRK6xL-39" style="rounded=0;orthogonalLoop=1;jettySize=auto;html=1;entryX=1;entryY=0.5;entryDx=0;entryDy=0;" parent="_FnlPTHiWod3dSxRK6xL-27" source="_FnlPTHiWod3dSxRK6xL-21" target="_FnlPTHiWod3dSxRK6xL-29" edge="1">
          <mxGeometry relative="1" as="geometry" />
        </mxCell>
        <mxCell id="_FnlPTHiWod3dSxRK6xL-42" style="rounded=0;orthogonalLoop=1;jettySize=auto;html=1;" parent="_FnlPTHiWod3dSxRK6xL-27" source="_FnlPTHiWod3dSxRK6xL-21" target="_FnlPTHiWod3dSxRK6xL-35" edge="1">
          <mxGeometry relative="1" as="geometry" />
        </mxCell>
        <mxCell id="jrzMalghxuSwKoNrNAVI-11" value="0..1" style="edgeLabel;html=1;align=center;verticalAlign=middle;resizable=0;points=[];" vertex="1" connectable="0" parent="_FnlPTHiWod3dSxRK6xL-42">
          <mxGeometry x="0.6724" y="-5" relative="1" as="geometry">
            <mxPoint as="offset" />
          </mxGeometry>
        </mxCell>
        <mxCell id="_FnlPTHiWod3dSxRK6xL-43" style="rounded=0;orthogonalLoop=1;jettySize=auto;html=1;" parent="_FnlPTHiWod3dSxRK6xL-27" target="_FnlPTHiWod3dSxRK6xL-36" edge="1">
          <mxGeometry relative="1" as="geometry">
            <mxPoint x="310" y="158" as="sourcePoint" />
          </mxGeometry>
        </mxCell>
        <mxCell id="o6evxd8uxwhw9Y35Vhtc-4" value="1" style="edgeLabel;html=1;align=center;verticalAlign=middle;resizable=0;points=[];" parent="_FnlPTHiWod3dSxRK6xL-43" vertex="1" connectable="0">
          <mxGeometry x="-0.5371" y="-2" relative="1" as="geometry">
            <mxPoint x="17" y="-4" as="offset" />
          </mxGeometry>
        </mxCell>
        <mxCell id="jrzMalghxuSwKoNrNAVI-12" style="rounded=0;orthogonalLoop=1;jettySize=auto;html=1;" edge="1" parent="_FnlPTHiWod3dSxRK6xL-27" source="_FnlPTHiWod3dSxRK6xL-21" target="_FnlPTHiWod3dSxRK6xL-31">
          <mxGeometry relative="1" as="geometry" />
        </mxCell>
        <mxCell id="_FnlPTHiWod3dSxRK6xL-21" value="«Root»&lt;br&gt;«Entity»&lt;br&gt;&lt;b&gt;Patient&lt;/b&gt;" style="html=1;whiteSpace=wrap;" parent="_FnlPTHiWod3dSxRK6xL-27" vertex="1">
          <mxGeometry x="310" y="155" width="150" height="60" as="geometry" />
        </mxCell>
        <mxCell id="_FnlPTHiWod3dSxRK6xL-28" value="«Value Object»&lt;br&gt;&lt;b&gt;Date of Birth&lt;/b&gt;" style="html=1;whiteSpace=wrap;" parent="_FnlPTHiWod3dSxRK6xL-27" vertex="1">
          <mxGeometry x="50" y="167" width="120" height="50" as="geometry" />
        </mxCell>
        <mxCell id="_FnlPTHiWod3dSxRK6xL-29" value="«Value Object»&lt;br&gt;&lt;b&gt;Gender&lt;/b&gt;" style="html=1;whiteSpace=wrap;" parent="_FnlPTHiWod3dSxRK6xL-27" vertex="1">
          <mxGeometry x="50" y="247" width="120" height="50" as="geometry" />
        </mxCell>
        <mxCell id="_FnlPTHiWod3dSxRK6xL-35" value="«Value Object»&lt;br&gt;&lt;b&gt;Emergency Contact&lt;/b&gt;" style="html=1;whiteSpace=wrap;" parent="_FnlPTHiWod3dSxRK6xL-27" vertex="1">
          <mxGeometry x="254" y="321" width="130" height="50" as="geometry" />
        </mxCell>
        <mxCell id="_FnlPTHiWod3dSxRK6xL-36" value="«Value Object»&lt;br&gt;&lt;b&gt;Medical Record Number&lt;/b&gt;" style="html=1;whiteSpace=wrap;" parent="_FnlPTHiWod3dSxRK6xL-27" vertex="1">
          <mxGeometry x="70" y="87" width="130" height="50" as="geometry" />
        </mxCell>
        <mxCell id="_FnlPTHiWod3dSxRK6xL-31" value="«Value Object»&lt;br&gt;&lt;b&gt;Medical Conditions&lt;/b&gt;" style="html=1;whiteSpace=wrap;" parent="_FnlPTHiWod3dSxRK6xL-27" vertex="1">
          <mxGeometry x="292" y="7" width="147" height="60" as="geometry" />
        </mxCell>
        <mxCell id="o6evxd8uxwhw9Y35Vhtc-5" value="1" style="text;html=1;align=center;verticalAlign=middle;resizable=0;points=[];autosize=1;strokeColor=none;fillColor=none;" parent="_FnlPTHiWod3dSxRK6xL-27" vertex="1">
          <mxGeometry x="375" y="131" width="25" height="26" as="geometry" />
        </mxCell>
        <mxCell id="o6evxd8uxwhw9Y35Vhtc-7" value="1" style="text;html=1;align=center;verticalAlign=middle;resizable=0;points=[];autosize=1;strokeColor=none;fillColor=none;" parent="_FnlPTHiWod3dSxRK6xL-27" vertex="1">
          <mxGeometry x="294" y="213" width="25" height="26" as="geometry" />
        </mxCell>
        <mxCell id="o6evxd8uxwhw9Y35Vhtc-8" value="0..1" style="text;html=1;align=center;verticalAlign=middle;resizable=0;points=[];autosize=1;strokeColor=none;fillColor=none;" parent="_FnlPTHiWod3dSxRK6xL-27" vertex="1">
          <mxGeometry x="174" y="263" width="38" height="26" as="geometry" />
        </mxCell>
        <mxCell id="o6evxd8uxwhw9Y35Vhtc-6" value="1" style="text;html=1;align=center;verticalAlign=middle;resizable=0;points=[];autosize=1;strokeColor=none;fillColor=none;" parent="_FnlPTHiWod3dSxRK6xL-27" vertex="1">
          <mxGeometry x="282" y="167" width="25" height="26" as="geometry" />
        </mxCell>
        <mxCell id="o6evxd8uxwhw9Y35Vhtc-9" value="1" style="text;html=1;align=center;verticalAlign=middle;resizable=0;points=[];autosize=1;strokeColor=none;fillColor=none;" parent="_FnlPTHiWod3dSxRK6xL-27" vertex="1">
          <mxGeometry x="174" y="185" width="25" height="26" as="geometry" />
        </mxCell>
        <mxCell id="o6evxd8uxwhw9Y35Vhtc-10" value="1" style="text;html=1;align=center;verticalAlign=middle;resizable=0;points=[];autosize=1;strokeColor=none;fillColor=none;" parent="_FnlPTHiWod3dSxRK6xL-27" vertex="1">
          <mxGeometry x="203" y="109" width="25" height="26" as="geometry" />
        </mxCell>
        <mxCell id="o6evxd8uxwhw9Y35Vhtc-22" value="1" style="text;html=1;align=center;verticalAlign=middle;resizable=0;points=[];autosize=1;strokeColor=none;fillColor=none;" parent="_FnlPTHiWod3dSxRK6xL-27" vertex="1">
          <mxGeometry x="367" y="70" width="25" height="26" as="geometry" />
        </mxCell>
        <mxCell id="o6evxd8uxwhw9Y35Vhtc-11" value="1" style="text;html=1;align=center;verticalAlign=middle;resizable=0;points=[];autosize=1;strokeColor=none;fillColor=none;" parent="_FnlPTHiWod3dSxRK6xL-27" vertex="1">
          <mxGeometry x="439" y="131" width="25" height="26" as="geometry" />
        </mxCell>
        <mxCell id="_FnlPTHiWod3dSxRK6xL-45" value="Staff" style="shape=umlFrame;whiteSpace=wrap;html=1;pointerEvents=0;recursiveResize=0;container=1;collapsible=0;width=160;flipH=1;" parent="1" vertex="1">
          <mxGeometry x="863" y="102" width="793" height="433" as="geometry" />
        </mxCell>
        <mxCell id="_FnlPTHiWod3dSxRK6xL-66" style="rounded=0;orthogonalLoop=1;jettySize=auto;html=1;" parent="_FnlPTHiWod3dSxRK6xL-45" source="_FnlPTHiWod3dSxRK6xL-20" target="_FnlPTHiWod3dSxRK6xL-49" edge="1">
          <mxGeometry relative="1" as="geometry" />
        </mxCell>
        <mxCell id="jrzMalghxuSwKoNrNAVI-27" value="1" style="edgeLabel;html=1;align=center;verticalAlign=middle;resizable=0;points=[];" vertex="1" connectable="0" parent="_FnlPTHiWod3dSxRK6xL-66">
          <mxGeometry x="0.6183" y="-1" relative="1" as="geometry">
            <mxPoint as="offset" />
          </mxGeometry>
        </mxCell>
        <mxCell id="_FnlPTHiWod3dSxRK6xL-67" style="rounded=0;orthogonalLoop=1;jettySize=auto;html=1;" parent="_FnlPTHiWod3dSxRK6xL-45" source="_FnlPTHiWod3dSxRK6xL-20" target="_FnlPTHiWod3dSxRK6xL-48" edge="1">
          <mxGeometry relative="1" as="geometry" />
        </mxCell>
        <mxCell id="jrzMalghxuSwKoNrNAVI-19" value="1" style="edgeLabel;html=1;align=center;verticalAlign=middle;resizable=0;points=[];" vertex="1" connectable="0" parent="_FnlPTHiWod3dSxRK6xL-67">
          <mxGeometry x="0.5831" relative="1" as="geometry">
            <mxPoint y="1" as="offset" />
          </mxGeometry>
        </mxCell>
        <mxCell id="_FnlPTHiWod3dSxRK6xL-68" style="rounded=0;orthogonalLoop=1;jettySize=auto;html=1;" parent="_FnlPTHiWod3dSxRK6xL-45" source="_FnlPTHiWod3dSxRK6xL-20" target="_FnlPTHiWod3dSxRK6xL-50" edge="1">
          <mxGeometry relative="1" as="geometry" />
        </mxCell>
        <mxCell id="jrzMalghxuSwKoNrNAVI-26" value="*" style="edgeLabel;html=1;align=center;verticalAlign=middle;resizable=0;points=[];" vertex="1" connectable="0" parent="_FnlPTHiWod3dSxRK6xL-68">
          <mxGeometry x="0.7292" y="1" relative="1" as="geometry">
            <mxPoint x="-1" y="-8" as="offset" />
          </mxGeometry>
        </mxCell>
        <mxCell id="_FnlPTHiWod3dSxRK6xL-69" style="rounded=0;orthogonalLoop=1;jettySize=auto;html=1;" parent="_FnlPTHiWod3dSxRK6xL-45" source="_FnlPTHiWod3dSxRK6xL-20" target="_FnlPTHiWod3dSxRK6xL-30" edge="1">
          <mxGeometry relative="1" as="geometry" />
        </mxCell>
        <mxCell id="jrzMalghxuSwKoNrNAVI-21" value="1" style="edgeLabel;html=1;align=center;verticalAlign=middle;resizable=0;points=[];" vertex="1" connectable="0" parent="_FnlPTHiWod3dSxRK6xL-69">
          <mxGeometry x="-0.9042" relative="1" as="geometry">
            <mxPoint as="offset" />
          </mxGeometry>
        </mxCell>
        <mxCell id="jrzMalghxuSwKoNrNAVI-25" value="1" style="edgeLabel;html=1;align=center;verticalAlign=middle;resizable=0;points=[];" vertex="1" connectable="0" parent="_FnlPTHiWod3dSxRK6xL-69">
          <mxGeometry x="0.8761" relative="1" as="geometry">
            <mxPoint as="offset" />
          </mxGeometry>
        </mxCell>
        <mxCell id="_FnlPTHiWod3dSxRK6xL-70" style="rounded=0;orthogonalLoop=1;jettySize=auto;html=1;entryX=1;entryY=0.5;entryDx=0;entryDy=0;" parent="_FnlPTHiWod3dSxRK6xL-45" source="_FnlPTHiWod3dSxRK6xL-20" target="_FnlPTHiWod3dSxRK6xL-32" edge="1">
          <mxGeometry relative="1" as="geometry" />
        </mxCell>
        <mxCell id="jrzMalghxuSwKoNrNAVI-22" value="1" style="edgeLabel;html=1;align=center;verticalAlign=middle;resizable=0;points=[];" vertex="1" connectable="0" parent="_FnlPTHiWod3dSxRK6xL-70">
          <mxGeometry x="-0.9054" y="1" relative="1" as="geometry">
            <mxPoint as="offset" />
          </mxGeometry>
        </mxCell>
        <mxCell id="jrzMalghxuSwKoNrNAVI-23" value="1" style="edgeLabel;html=1;align=center;verticalAlign=middle;resizable=0;points=[];" vertex="1" connectable="0" parent="_FnlPTHiWod3dSxRK6xL-70">
          <mxGeometry x="0.8739" y="1" relative="1" as="geometry">
            <mxPoint as="offset" />
          </mxGeometry>
        </mxCell>
        <mxCell id="_FnlPTHiWod3dSxRK6xL-71" style="rounded=0;orthogonalLoop=1;jettySize=auto;html=1;entryX=1;entryY=0.5;entryDx=0;entryDy=0;" parent="_FnlPTHiWod3dSxRK6xL-45" source="_FnlPTHiWod3dSxRK6xL-20" target="_FnlPTHiWod3dSxRK6xL-26" edge="1">
          <mxGeometry relative="1" as="geometry" />
        </mxCell>
        <mxCell id="jrzMalghxuSwKoNrNAVI-20" value="1" style="edgeLabel;html=1;align=center;verticalAlign=middle;resizable=0;points=[];" vertex="1" connectable="0" parent="_FnlPTHiWod3dSxRK6xL-71">
          <mxGeometry x="-0.9023" y="-1" relative="1" as="geometry">
            <mxPoint as="offset" />
          </mxGeometry>
        </mxCell>
        <mxCell id="jrzMalghxuSwKoNrNAVI-24" value="1" style="edgeLabel;html=1;align=center;verticalAlign=middle;resizable=0;points=[];" vertex="1" connectable="0" parent="_FnlPTHiWod3dSxRK6xL-71">
          <mxGeometry x="0.8573" y="4" relative="1" as="geometry">
            <mxPoint as="offset" />
          </mxGeometry>
        </mxCell>
        <mxCell id="_FnlPTHiWod3dSxRK6xL-20" value="&lt;div&gt;«Root»&lt;br&gt;&lt;/div&gt;«Entity»&lt;br&gt;&lt;b&gt;Staff&lt;/b&gt;" style="html=1;whiteSpace=wrap;" parent="_FnlPTHiWod3dSxRK6xL-45" vertex="1">
          <mxGeometry x="400" y="140" width="110" height="50" as="geometry" />
        </mxCell>
        <mxCell id="_FnlPTHiWod3dSxRK6xL-48" value="«Value Object»&lt;br&gt;&lt;b&gt;License Number&lt;/b&gt;" style="html=1;whiteSpace=wrap;" parent="_FnlPTHiWod3dSxRK6xL-45" vertex="1">
          <mxGeometry x="461" y="22" width="130" height="50" as="geometry" />
        </mxCell>
        <mxCell id="_FnlPTHiWod3dSxRK6xL-26" value="«Value Object»&lt;br&gt;&lt;b&gt;Full Name&lt;/b&gt;" style="html=1;whiteSpace=wrap;" parent="_FnlPTHiWod3dSxRK6xL-45" vertex="1">
          <mxGeometry x="44" y="170" width="120" height="50" as="geometry" />
        </mxCell>
        <mxCell id="_FnlPTHiWod3dSxRK6xL-49" value="«Value Object»&lt;br&gt;&lt;b&gt;Specialization&lt;/b&gt;" style="html=1;whiteSpace=wrap;" parent="_FnlPTHiWod3dSxRK6xL-45" vertex="1">
          <mxGeometry x="624" y="190" width="130" height="50" as="geometry" />
        </mxCell>
        <mxCell id="_FnlPTHiWod3dSxRK6xL-30" value="«Value Object»&lt;br&gt;&lt;b&gt;Email&lt;/b&gt;" style="html=1;whiteSpace=wrap;" parent="_FnlPTHiWod3dSxRK6xL-45" vertex="1">
          <mxGeometry x="57" y="22" width="120" height="50" as="geometry" />
        </mxCell>
        <mxCell id="_FnlPTHiWod3dSxRK6xL-32" value="«Value Object»&lt;br&gt;&lt;b&gt;Phone Number&lt;/b&gt;" style="html=1;whiteSpace=wrap;" parent="_FnlPTHiWod3dSxRK6xL-45" vertex="1">
          <mxGeometry x="64" y="250" width="120" height="50" as="geometry" />
        </mxCell>
        <mxCell id="_FnlPTHiWod3dSxRK6xL-50" value="«Value Object»&lt;br&gt;&lt;b&gt;Available Slots&lt;/b&gt;" style="html=1;whiteSpace=wrap;" parent="_FnlPTHiWod3dSxRK6xL-45" vertex="1">
          <mxGeometry x="636" y="94" width="130" height="50" as="geometry" />
        </mxCell>
        <mxCell id="BuSMUL9DYR4-gajgLUsj-7" value="" style="endArrow=block;html=1;rounded=0;align=center;verticalAlign=bottom;endFill=0;labelBackgroundColor=none;endSize=8;entryX=0.25;entryY=1;entryDx=0;entryDy=0;" parent="_FnlPTHiWod3dSxRK6xL-45" source="BuSMUL9DYR4-gajgLUsj-9" target="_FnlPTHiWod3dSxRK6xL-20" edge="1">
          <mxGeometry x="-0.0052" relative="1" as="geometry">
            <mxPoint x="270" y="330" as="sourcePoint" />
            <mxPoint x="430" y="330" as="targetPoint" />
            <mxPoint as="offset" />
          </mxGeometry>
        </mxCell>
        <mxCell id="5miTPN8ST5ZtXjTx5UD1-3" style="rounded=0;orthogonalLoop=1;jettySize=auto;html=1;" parent="_FnlPTHiWod3dSxRK6xL-45" source="BuSMUL9DYR4-gajgLUsj-9" target="5miTPN8ST5ZtXjTx5UD1-2" edge="1">
          <mxGeometry relative="1" as="geometry" />
        </mxCell>
        <mxCell id="jrzMalghxuSwKoNrNAVI-28" value="1" style="edgeLabel;html=1;align=center;verticalAlign=middle;resizable=0;points=[];" vertex="1" connectable="0" parent="5miTPN8ST5ZtXjTx5UD1-3">
          <mxGeometry x="0.4635" relative="1" as="geometry">
            <mxPoint as="offset" />
          </mxGeometry>
        </mxCell>
        <mxCell id="o6evxd8uxwhw9Y35Vhtc-3" style="rounded=0;orthogonalLoop=1;jettySize=auto;html=1;entryX=0;entryY=0.5;entryDx=0;entryDy=0;" parent="_FnlPTHiWod3dSxRK6xL-45" source="BuSMUL9DYR4-gajgLUsj-9" target="o6evxd8uxwhw9Y35Vhtc-2" edge="1">
          <mxGeometry relative="1" as="geometry" />
        </mxCell>
        <mxCell id="jrzMalghxuSwKoNrNAVI-29" value="1" style="edgeLabel;html=1;align=center;verticalAlign=middle;resizable=0;points=[];" vertex="1" connectable="0" parent="o6evxd8uxwhw9Y35Vhtc-3">
          <mxGeometry x="0.4677" relative="1" as="geometry">
            <mxPoint y="1" as="offset" />
          </mxGeometry>
        </mxCell>
        <mxCell id="BuSMUL9DYR4-gajgLUsj-9" value="«Entity»&lt;br&gt;&lt;b&gt;Doctor&lt;/b&gt;" style="html=1;whiteSpace=wrap;" parent="_FnlPTHiWod3dSxRK6xL-45" vertex="1">
          <mxGeometry x="320" y="300" width="110" height="50" as="geometry" />
        </mxCell>
        <mxCell id="5miTPN8ST5ZtXjTx5UD1-2" value="«Value Object»&lt;br&gt;&lt;b&gt;isIntern&lt;/b&gt;" style="html=1;whiteSpace=wrap;" parent="_FnlPTHiWod3dSxRK6xL-45" vertex="1">
          <mxGeometry x="488" y="262" width="130" height="50" as="geometry" />
        </mxCell>
        <mxCell id="o6evxd8uxwhw9Y35Vhtc-2" value="«Value Object»&lt;br&gt;&lt;b&gt;Expertise&lt;/b&gt;" style="html=1;whiteSpace=wrap;" parent="_FnlPTHiWod3dSxRK6xL-45" vertex="1">
          <mxGeometry x="488" y="340" width="130" height="50" as="geometry" />
        </mxCell>
        <mxCell id="_FnlPTHiWod3dSxRK6xL-37" style="rounded=0;orthogonalLoop=1;jettySize=auto;html=1;" parent="1" source="_FnlPTHiWod3dSxRK6xL-21" target="_FnlPTHiWod3dSxRK6xL-26" edge="1">
          <mxGeometry relative="1" as="geometry" />
        </mxCell>
        <mxCell id="jrzMalghxuSwKoNrNAVI-9" value="1" style="edgeLabel;html=1;align=center;verticalAlign=middle;resizable=0;points=[];" vertex="1" connectable="0" parent="_FnlPTHiWod3dSxRK6xL-37">
          <mxGeometry x="0.9142" y="2" relative="1" as="geometry">
            <mxPoint as="offset" />
          </mxGeometry>
        </mxCell>
        <mxCell id="_FnlPTHiWod3dSxRK6xL-40" style="rounded=0;orthogonalLoop=1;jettySize=auto;html=1;entryX=0;entryY=0.5;entryDx=0;entryDy=0;" parent="1" source="_FnlPTHiWod3dSxRK6xL-21" target="_FnlPTHiWod3dSxRK6xL-30" edge="1">
          <mxGeometry relative="1" as="geometry" />
        </mxCell>
        <mxCell id="jrzMalghxuSwKoNrNAVI-8" value="1" style="edgeLabel;html=1;align=center;verticalAlign=middle;resizable=0;points=[];" vertex="1" connectable="0" parent="_FnlPTHiWod3dSxRK6xL-40">
          <mxGeometry x="0.9068" y="4" relative="1" as="geometry">
            <mxPoint as="offset" />
          </mxGeometry>
        </mxCell>
        <mxCell id="_FnlPTHiWod3dSxRK6xL-41" style="rounded=0;orthogonalLoop=1;jettySize=auto;html=1;" parent="1" source="_FnlPTHiWod3dSxRK6xL-21" target="_FnlPTHiWod3dSxRK6xL-32" edge="1">
          <mxGeometry relative="1" as="geometry" />
        </mxCell>
        <mxCell id="jrzMalghxuSwKoNrNAVI-10" value="1" style="edgeLabel;html=1;align=center;verticalAlign=middle;resizable=0;points=[];" vertex="1" connectable="0" parent="_FnlPTHiWod3dSxRK6xL-41">
          <mxGeometry x="0.9296" y="1" relative="1" as="geometry">
            <mxPoint as="offset" />
          </mxGeometry>
        </mxCell>
        <mxCell id="_FnlPTHiWod3dSxRK6xL-83" value="Appointment" style="shape=umlFrame;whiteSpace=wrap;html=1;pointerEvents=0;recursiveResize=0;container=1;collapsible=0;width=160;" parent="1" vertex="1">
          <mxGeometry x="1703" y="580" width="630" height="440" as="geometry" />
        </mxCell>
        <mxCell id="_FnlPTHiWod3dSxRK6xL-87" style="rounded=0;orthogonalLoop=1;jettySize=auto;html=1;" parent="_FnlPTHiWod3dSxRK6xL-83" source="_FnlPTHiWod3dSxRK6xL-84" target="_FnlPTHiWod3dSxRK6xL-85" edge="1">
          <mxGeometry relative="1" as="geometry" />
        </mxCell>
        <mxCell id="jrzMalghxuSwKoNrNAVI-58" value="1" style="edgeLabel;html=1;align=center;verticalAlign=middle;resizable=0;points=[];" vertex="1" connectable="0" parent="_FnlPTHiWod3dSxRK6xL-87">
          <mxGeometry x="-0.8236" relative="1" as="geometry">
            <mxPoint as="offset" />
          </mxGeometry>
        </mxCell>
        <mxCell id="jrzMalghxuSwKoNrNAVI-59" value="1" style="edgeLabel;html=1;align=center;verticalAlign=middle;resizable=0;points=[];" vertex="1" connectable="0" parent="_FnlPTHiWod3dSxRK6xL-87">
          <mxGeometry x="0.6956" relative="1" as="geometry">
            <mxPoint as="offset" />
          </mxGeometry>
        </mxCell>
        <mxCell id="_FnlPTHiWod3dSxRK6xL-106" style="rounded=0;orthogonalLoop=1;jettySize=auto;html=1;" parent="_FnlPTHiWod3dSxRK6xL-83" source="_FnlPTHiWod3dSxRK6xL-84" target="_FnlPTHiWod3dSxRK6xL-89" edge="1">
          <mxGeometry relative="1" as="geometry" />
        </mxCell>
        <mxCell id="jrzMalghxuSwKoNrNAVI-56" value="1" style="edgeLabel;html=1;align=center;verticalAlign=middle;resizable=0;points=[];" vertex="1" connectable="0" parent="_FnlPTHiWod3dSxRK6xL-106">
          <mxGeometry x="-0.8607" y="2" relative="1" as="geometry">
            <mxPoint x="5" y="8" as="offset" />
          </mxGeometry>
        </mxCell>
        <mxCell id="jrzMalghxuSwKoNrNAVI-57" value="1" style="edgeLabel;html=1;align=center;verticalAlign=middle;resizable=0;points=[];" vertex="1" connectable="0" parent="_FnlPTHiWod3dSxRK6xL-106">
          <mxGeometry x="0.753" y="2" relative="1" as="geometry">
            <mxPoint as="offset" />
          </mxGeometry>
        </mxCell>
        <mxCell id="_FnlPTHiWod3dSxRK6xL-107" style="rounded=0;orthogonalLoop=1;jettySize=auto;html=1;" parent="_FnlPTHiWod3dSxRK6xL-83" source="_FnlPTHiWod3dSxRK6xL-84" target="_FnlPTHiWod3dSxRK6xL-90" edge="1">
          <mxGeometry relative="1" as="geometry" />
        </mxCell>
        <mxCell id="jrzMalghxuSwKoNrNAVI-54" value="1" style="edgeLabel;html=1;align=center;verticalAlign=middle;resizable=0;points=[];" vertex="1" connectable="0" parent="_FnlPTHiWod3dSxRK6xL-107">
          <mxGeometry x="-0.716" y="2" relative="1" as="geometry">
            <mxPoint as="offset" />
          </mxGeometry>
        </mxCell>
        <mxCell id="jrzMalghxuSwKoNrNAVI-55" value="1" style="edgeLabel;html=1;align=center;verticalAlign=middle;resizable=0;points=[];" vertex="1" connectable="0" parent="_FnlPTHiWod3dSxRK6xL-107">
          <mxGeometry x="0.5884" y="-1" relative="1" as="geometry">
            <mxPoint as="offset" />
          </mxGeometry>
        </mxCell>
        <mxCell id="jrzMalghxuSwKoNrNAVI-35" style="rounded=0;orthogonalLoop=1;jettySize=auto;html=1;" edge="1" parent="_FnlPTHiWod3dSxRK6xL-83" source="_FnlPTHiWod3dSxRK6xL-84" target="jrzMalghxuSwKoNrNAVI-34">
          <mxGeometry relative="1" as="geometry" />
        </mxCell>
        <mxCell id="jrzMalghxuSwKoNrNAVI-60" value="1" style="edgeLabel;html=1;align=center;verticalAlign=middle;resizable=0;points=[];" vertex="1" connectable="0" parent="jrzMalghxuSwKoNrNAVI-35">
          <mxGeometry x="-0.8455" y="4" relative="1" as="geometry">
            <mxPoint as="offset" />
          </mxGeometry>
        </mxCell>
        <mxCell id="jrzMalghxuSwKoNrNAVI-61" value="1" style="edgeLabel;html=1;align=center;verticalAlign=middle;resizable=0;points=[];" vertex="1" connectable="0" parent="jrzMalghxuSwKoNrNAVI-35">
          <mxGeometry x="0.7836" y="1" relative="1" as="geometry">
            <mxPoint as="offset" />
          </mxGeometry>
        </mxCell>
        <mxCell id="_FnlPTHiWod3dSxRK6xL-84" value="«Root»&lt;br&gt;«Entity»&lt;br&gt;&lt;b&gt;Appointment&lt;/b&gt;" style="html=1;whiteSpace=wrap;" parent="_FnlPTHiWod3dSxRK6xL-83" vertex="1">
          <mxGeometry x="145" y="160" width="120" height="50" as="geometry" />
        </mxCell>
        <mxCell id="_FnlPTHiWod3dSxRK6xL-85" value="«Value Object»&lt;br&gt;&lt;b&gt;AppointmentID&lt;/b&gt;" style="html=1;whiteSpace=wrap;" parent="_FnlPTHiWod3dSxRK6xL-83" vertex="1">
          <mxGeometry x="420" y="195" width="130" height="50" as="geometry" />
        </mxCell>
        <mxCell id="_FnlPTHiWod3dSxRK6xL-89" value="«Value Object»&lt;br&gt;&lt;b&gt;Time&lt;/b&gt;" style="html=1;whiteSpace=wrap;" parent="_FnlPTHiWod3dSxRK6xL-83" vertex="1">
          <mxGeometry x="390" y="300" width="120" height="50" as="geometry" />
        </mxCell>
        <mxCell id="_FnlPTHiWod3dSxRK6xL-90" value="«Value Object»&lt;br&gt;&lt;b&gt;Status&lt;/b&gt;" style="html=1;whiteSpace=wrap;" parent="_FnlPTHiWod3dSxRK6xL-83" vertex="1">
          <mxGeometry x="210" y="300" width="120" height="50" as="geometry" />
        </mxCell>
        <mxCell id="jrzMalghxuSwKoNrNAVI-34" value="«Value Object»&lt;br&gt;&lt;b&gt;Date&lt;/b&gt;" style="html=1;whiteSpace=wrap;" vertex="1" parent="_FnlPTHiWod3dSxRK6xL-83">
          <mxGeometry x="420" y="120" width="120" height="50" as="geometry" />
        </mxCell>
        <mxCell id="_FnlPTHiWod3dSxRK6xL-91" value="Room" style="shape=umlFrame;whiteSpace=wrap;html=1;pointerEvents=0;recursiveResize=0;container=1;collapsible=0;width=160;" parent="1" vertex="1">
          <mxGeometry x="1694" y="67" width="590" height="456" as="geometry" />
        </mxCell>
        <mxCell id="_FnlPTHiWod3dSxRK6xL-98" style="rounded=0;orthogonalLoop=1;jettySize=auto;html=1;entryX=0;entryY=0.5;entryDx=0;entryDy=0;" parent="_FnlPTHiWod3dSxRK6xL-91" source="_FnlPTHiWod3dSxRK6xL-25" target="_FnlPTHiWod3dSxRK6xL-92" edge="1">
          <mxGeometry relative="1" as="geometry" />
        </mxCell>
        <mxCell id="jrzMalghxuSwKoNrNAVI-67" value="1" style="edgeLabel;html=1;align=center;verticalAlign=middle;resizable=0;points=[];" vertex="1" connectable="0" parent="_FnlPTHiWod3dSxRK6xL-98">
          <mxGeometry x="-0.6934" y="-2" relative="1" as="geometry">
            <mxPoint as="offset" />
          </mxGeometry>
        </mxCell>
        <mxCell id="jrzMalghxuSwKoNrNAVI-70" value="1" style="edgeLabel;html=1;align=center;verticalAlign=middle;resizable=0;points=[];" vertex="1" connectable="0" parent="_FnlPTHiWod3dSxRK6xL-98">
          <mxGeometry x="0.8152" relative="1" as="geometry">
            <mxPoint as="offset" />
          </mxGeometry>
        </mxCell>
        <mxCell id="_FnlPTHiWod3dSxRK6xL-99" style="rounded=0;orthogonalLoop=1;jettySize=auto;html=1;" parent="_FnlPTHiWod3dSxRK6xL-91" source="_FnlPTHiWod3dSxRK6xL-25" target="_FnlPTHiWod3dSxRK6xL-93" edge="1">
          <mxGeometry relative="1" as="geometry" />
        </mxCell>
        <mxCell id="jrzMalghxuSwKoNrNAVI-66" value="1" style="edgeLabel;html=1;align=center;verticalAlign=middle;resizable=0;points=[];" vertex="1" connectable="0" parent="_FnlPTHiWod3dSxRK6xL-99">
          <mxGeometry x="-0.7821" y="3" relative="1" as="geometry">
            <mxPoint as="offset" />
          </mxGeometry>
        </mxCell>
        <mxCell id="jrzMalghxuSwKoNrNAVI-71" value="1" style="edgeLabel;html=1;align=center;verticalAlign=middle;resizable=0;points=[];" vertex="1" connectable="0" parent="_FnlPTHiWod3dSxRK6xL-99">
          <mxGeometry x="0.8492" y="4" relative="1" as="geometry">
            <mxPoint as="offset" />
          </mxGeometry>
        </mxCell>
        <mxCell id="_FnlPTHiWod3dSxRK6xL-100" style="rounded=0;orthogonalLoop=1;jettySize=auto;html=1;entryX=0;entryY=0.5;entryDx=0;entryDy=0;" parent="_FnlPTHiWod3dSxRK6xL-91" source="_FnlPTHiWod3dSxRK6xL-25" target="_FnlPTHiWod3dSxRK6xL-94" edge="1">
          <mxGeometry relative="1" as="geometry" />
        </mxCell>
        <mxCell id="jrzMalghxuSwKoNrNAVI-64" value="1" style="edgeLabel;html=1;align=center;verticalAlign=middle;resizable=0;points=[];" vertex="1" connectable="0" parent="_FnlPTHiWod3dSxRK6xL-100">
          <mxGeometry x="-0.8834" y="-2" relative="1" as="geometry">
            <mxPoint as="offset" />
          </mxGeometry>
        </mxCell>
        <mxCell id="jrzMalghxuSwKoNrNAVI-72" value="1" style="edgeLabel;html=1;align=center;verticalAlign=middle;resizable=0;points=[];" vertex="1" connectable="0" parent="_FnlPTHiWod3dSxRK6xL-100">
          <mxGeometry x="0.8657" y="1" relative="1" as="geometry">
            <mxPoint as="offset" />
          </mxGeometry>
        </mxCell>
        <mxCell id="_FnlPTHiWod3dSxRK6xL-101" style="rounded=0;orthogonalLoop=1;jettySize=auto;html=1;entryX=0;entryY=0.5;entryDx=0;entryDy=0;" parent="_FnlPTHiWod3dSxRK6xL-91" source="_FnlPTHiWod3dSxRK6xL-25" target="_FnlPTHiWod3dSxRK6xL-95" edge="1">
          <mxGeometry relative="1" as="geometry" />
        </mxCell>
        <mxCell id="jrzMalghxuSwKoNrNAVI-65" value="1" style="edgeLabel;html=1;align=center;verticalAlign=middle;resizable=0;points=[];" vertex="1" connectable="0" parent="_FnlPTHiWod3dSxRK6xL-101">
          <mxGeometry x="-0.8074" relative="1" as="geometry">
            <mxPoint as="offset" />
          </mxGeometry>
        </mxCell>
        <mxCell id="jrzMalghxuSwKoNrNAVI-73" value="*" style="edgeLabel;html=1;align=center;verticalAlign=middle;resizable=0;points=[];" vertex="1" connectable="0" parent="_FnlPTHiWod3dSxRK6xL-101">
          <mxGeometry x="0.8213" y="-1" relative="1" as="geometry">
            <mxPoint y="8" as="offset" />
          </mxGeometry>
        </mxCell>
        <mxCell id="_FnlPTHiWod3dSxRK6xL-102" style="rounded=0;orthogonalLoop=1;jettySize=auto;html=1;entryX=0;entryY=0.5;entryDx=0;entryDy=0;" parent="_FnlPTHiWod3dSxRK6xL-91" source="_FnlPTHiWod3dSxRK6xL-25" target="_FnlPTHiWod3dSxRK6xL-96" edge="1">
          <mxGeometry relative="1" as="geometry" />
        </mxCell>
        <mxCell id="jrzMalghxuSwKoNrNAVI-68" value="1" style="edgeLabel;html=1;align=center;verticalAlign=middle;resizable=0;points=[];" vertex="1" connectable="0" parent="_FnlPTHiWod3dSxRK6xL-102">
          <mxGeometry x="-0.841" y="-2" relative="1" as="geometry">
            <mxPoint as="offset" />
          </mxGeometry>
        </mxCell>
        <mxCell id="jrzMalghxuSwKoNrNAVI-74" value="1" style="edgeLabel;html=1;align=center;verticalAlign=middle;resizable=0;points=[];" vertex="1" connectable="0" parent="_FnlPTHiWod3dSxRK6xL-102">
          <mxGeometry x="0.8189" y="5" relative="1" as="geometry">
            <mxPoint as="offset" />
          </mxGeometry>
        </mxCell>
        <mxCell id="_FnlPTHiWod3dSxRK6xL-103" style="rounded=0;orthogonalLoop=1;jettySize=auto;html=1;entryX=0;entryY=0.5;entryDx=0;entryDy=0;" parent="_FnlPTHiWod3dSxRK6xL-91" source="_FnlPTHiWod3dSxRK6xL-25" target="_FnlPTHiWod3dSxRK6xL-97" edge="1">
          <mxGeometry relative="1" as="geometry" />
        </mxCell>
        <mxCell id="jrzMalghxuSwKoNrNAVI-69" value="1" style="edgeLabel;html=1;align=center;verticalAlign=middle;resizable=0;points=[];" vertex="1" connectable="0" parent="_FnlPTHiWod3dSxRK6xL-103">
          <mxGeometry x="-0.7781" y="3" relative="1" as="geometry">
            <mxPoint as="offset" />
          </mxGeometry>
        </mxCell>
        <mxCell id="jrzMalghxuSwKoNrNAVI-75" value="*" style="edgeLabel;html=1;align=center;verticalAlign=middle;resizable=0;points=[];" vertex="1" connectable="0" parent="_FnlPTHiWod3dSxRK6xL-103">
          <mxGeometry x="0.8912" y="2" relative="1" as="geometry">
            <mxPoint x="-4" as="offset" />
          </mxGeometry>
        </mxCell>
        <mxCell id="_FnlPTHiWod3dSxRK6xL-25" value="«Root»&lt;br&gt;«Entity»&lt;br&gt;&lt;b&gt;Room&lt;/b&gt;" style="html=1;whiteSpace=wrap;" parent="_FnlPTHiWod3dSxRK6xL-91" vertex="1">
          <mxGeometry x="100" y="175" width="120" height="50" as="geometry" />
        </mxCell>
        <mxCell id="_FnlPTHiWod3dSxRK6xL-92" value="«Value Object»&lt;br&gt;&lt;b&gt;Room Number&lt;/b&gt;" style="html=1;whiteSpace=wrap;" parent="_FnlPTHiWod3dSxRK6xL-91" vertex="1">
          <mxGeometry x="450" y="150" width="120" height="50" as="geometry" />
        </mxCell>
        <mxCell id="_FnlPTHiWod3dSxRK6xL-93" value="«Value Object»&lt;br&gt;&lt;b&gt;Room Type&lt;/b&gt;" style="html=1;whiteSpace=wrap;" parent="_FnlPTHiWod3dSxRK6xL-91" vertex="1">
          <mxGeometry x="450" y="225" width="120" height="50" as="geometry" />
        </mxCell>
        <mxCell id="_FnlPTHiWod3dSxRK6xL-94" value="«Value Object»&lt;br&gt;&lt;b&gt;Room Capacity&lt;/b&gt;" style="html=1;whiteSpace=wrap;" parent="_FnlPTHiWod3dSxRK6xL-91" vertex="1">
          <mxGeometry x="450" y="390" width="120" height="50" as="geometry" />
        </mxCell>
        <mxCell id="_FnlPTHiWod3dSxRK6xL-95" value="«Value Object»&lt;br&gt;&lt;b&gt;Room Equipment&lt;/b&gt;" style="html=1;whiteSpace=wrap;" parent="_FnlPTHiWod3dSxRK6xL-91" vertex="1">
          <mxGeometry x="450" y="300" width="120" height="50" as="geometry" />
        </mxCell>
        <mxCell id="_FnlPTHiWod3dSxRK6xL-96" value="«Value Object»&lt;br&gt;&lt;b&gt;Current Status&lt;/b&gt;" style="html=1;whiteSpace=wrap;" parent="_FnlPTHiWod3dSxRK6xL-91" vertex="1">
          <mxGeometry x="450" y="80" width="120" height="50" as="geometry" />
        </mxCell>
        <mxCell id="_FnlPTHiWod3dSxRK6xL-97" value="«Value Object»&lt;br&gt;&lt;b&gt;Maintenance Slots&lt;/b&gt;" style="html=1;whiteSpace=wrap;" parent="_FnlPTHiWod3dSxRK6xL-91" vertex="1">
          <mxGeometry x="450" y="10" width="120" height="50" as="geometry" />
        </mxCell>
        <mxCell id="_FnlPTHiWod3dSxRK6xL-61" value="Appointment Request" style="shape=umlFrame;whiteSpace=wrap;html=1;pointerEvents=0;recursiveResize=0;container=1;collapsible=0;width=160;" parent="1" vertex="1">
          <mxGeometry x="531" y="670" width="1112" height="494" as="geometry" />
        </mxCell>
        <mxCell id="_FnlPTHiWod3dSxRK6xL-72" style="rounded=0;orthogonalLoop=1;jettySize=auto;html=1;" parent="_FnlPTHiWod3dSxRK6xL-61" source="_FnlPTHiWod3dSxRK6xL-22" target="_FnlPTHiWod3dSxRK6xL-23" edge="1">
          <mxGeometry relative="1" as="geometry" />
        </mxCell>
        <mxCell id="jrzMalghxuSwKoNrNAVI-40" value="1" style="edgeLabel;html=1;align=center;verticalAlign=middle;resizable=0;points=[];" vertex="1" connectable="0" parent="_FnlPTHiWod3dSxRK6xL-72">
          <mxGeometry x="-0.7831" y="-3" relative="1" as="geometry">
            <mxPoint as="offset" />
          </mxGeometry>
        </mxCell>
        <mxCell id="jrzMalghxuSwKoNrNAVI-41" value="1" style="edgeLabel;html=1;align=center;verticalAlign=middle;resizable=0;points=[];" vertex="1" connectable="0" parent="_FnlPTHiWod3dSxRK6xL-72">
          <mxGeometry x="0.6389" y="-1" relative="1" as="geometry">
            <mxPoint as="offset" />
          </mxGeometry>
        </mxCell>
        <mxCell id="_FnlPTHiWod3dSxRK6xL-73" style="rounded=0;orthogonalLoop=1;jettySize=auto;html=1;" parent="_FnlPTHiWod3dSxRK6xL-61" source="_FnlPTHiWod3dSxRK6xL-22" target="_FnlPTHiWod3dSxRK6xL-65" edge="1">
          <mxGeometry relative="1" as="geometry" />
        </mxCell>
        <mxCell id="jrzMalghxuSwKoNrNAVI-50" value="1" style="edgeLabel;html=1;align=center;verticalAlign=middle;resizable=0;points=[];" vertex="1" connectable="0" parent="_FnlPTHiWod3dSxRK6xL-73">
          <mxGeometry x="-0.7903" y="-1" relative="1" as="geometry">
            <mxPoint as="offset" />
          </mxGeometry>
        </mxCell>
        <mxCell id="jrzMalghxuSwKoNrNAVI-51" value="1" style="edgeLabel;html=1;align=center;verticalAlign=middle;resizable=0;points=[];" vertex="1" connectable="0" parent="_FnlPTHiWod3dSxRK6xL-73">
          <mxGeometry x="0.7454" relative="1" as="geometry">
            <mxPoint as="offset" />
          </mxGeometry>
        </mxCell>
        <mxCell id="_FnlPTHiWod3dSxRK6xL-74" style="rounded=0;orthogonalLoop=1;jettySize=auto;html=1;" parent="_FnlPTHiWod3dSxRK6xL-61" source="_FnlPTHiWod3dSxRK6xL-22" target="_FnlPTHiWod3dSxRK6xL-88" edge="1">
          <mxGeometry relative="1" as="geometry">
            <mxPoint x="614.8863636363637" y="290" as="targetPoint" />
          </mxGeometry>
        </mxCell>
        <mxCell id="jrzMalghxuSwKoNrNAVI-36" value="1" style="edgeLabel;html=1;align=center;verticalAlign=middle;resizable=0;points=[];" vertex="1" connectable="0" parent="_FnlPTHiWod3dSxRK6xL-74">
          <mxGeometry x="-0.9148" y="2" relative="1" as="geometry">
            <mxPoint as="offset" />
          </mxGeometry>
        </mxCell>
        <mxCell id="jrzMalghxuSwKoNrNAVI-37" value="1" style="edgeLabel;html=1;align=center;verticalAlign=middle;resizable=0;points=[];" vertex="1" connectable="0" parent="_FnlPTHiWod3dSxRK6xL-74">
          <mxGeometry x="0.8577" y="1" relative="1" as="geometry">
            <mxPoint as="offset" />
          </mxGeometry>
        </mxCell>
        <mxCell id="_FnlPTHiWod3dSxRK6xL-75" style="rounded=0;orthogonalLoop=1;jettySize=auto;html=1;" parent="_FnlPTHiWod3dSxRK6xL-61" source="_FnlPTHiWod3dSxRK6xL-22" target="_FnlPTHiWod3dSxRK6xL-62" edge="1">
          <mxGeometry relative="1" as="geometry" />
        </mxCell>
        <mxCell id="jrzMalghxuSwKoNrNAVI-52" value="1" style="edgeLabel;html=1;align=center;verticalAlign=middle;resizable=0;points=[];" vertex="1" connectable="0" parent="_FnlPTHiWod3dSxRK6xL-75">
          <mxGeometry x="-0.7355" y="-3" relative="1" as="geometry">
            <mxPoint as="offset" />
          </mxGeometry>
        </mxCell>
        <mxCell id="jrzMalghxuSwKoNrNAVI-53" value="1" style="edgeLabel;html=1;align=center;verticalAlign=middle;resizable=0;points=[];" vertex="1" connectable="0" parent="_FnlPTHiWod3dSxRK6xL-75">
          <mxGeometry x="0.6886" y="-1" relative="1" as="geometry">
            <mxPoint as="offset" />
          </mxGeometry>
        </mxCell>
        <mxCell id="_FnlPTHiWod3dSxRK6xL-22" value="«Root»&lt;br&gt;«Entity»&lt;br&gt;&lt;b&gt;OperationRequest&lt;/b&gt;" style="html=1;whiteSpace=wrap;" parent="_FnlPTHiWod3dSxRK6xL-61" vertex="1">
          <mxGeometry x="320" y="70" width="120" height="50" as="geometry" />
        </mxCell>
        <mxCell id="_FnlPTHiWod3dSxRK6xL-78" style="rounded=0;orthogonalLoop=1;jettySize=auto;html=1;" parent="_FnlPTHiWod3dSxRK6xL-61" source="_FnlPTHiWod3dSxRK6xL-23" target="_FnlPTHiWod3dSxRK6xL-76" edge="1">
          <mxGeometry relative="1" as="geometry" />
        </mxCell>
        <mxCell id="jrzMalghxuSwKoNrNAVI-43" value="1" style="edgeLabel;html=1;align=center;verticalAlign=middle;resizable=0;points=[];" vertex="1" connectable="0" parent="_FnlPTHiWod3dSxRK6xL-78">
          <mxGeometry x="0.7823" y="-4" relative="1" as="geometry">
            <mxPoint y="-1" as="offset" />
          </mxGeometry>
        </mxCell>
        <mxCell id="jrzMalghxuSwKoNrNAVI-48" value="1" style="edgeLabel;html=1;align=center;verticalAlign=middle;resizable=0;points=[];" vertex="1" connectable="0" parent="_FnlPTHiWod3dSxRK6xL-78">
          <mxGeometry x="-0.8308" relative="1" as="geometry">
            <mxPoint as="offset" />
          </mxGeometry>
        </mxCell>
        <mxCell id="_FnlPTHiWod3dSxRK6xL-79" style="rounded=0;orthogonalLoop=1;jettySize=auto;html=1;" parent="_FnlPTHiWod3dSxRK6xL-61" source="_FnlPTHiWod3dSxRK6xL-23" target="_FnlPTHiWod3dSxRK6xL-77" edge="1">
          <mxGeometry relative="1" as="geometry" />
        </mxCell>
        <mxCell id="jrzMalghxuSwKoNrNAVI-42" value="1" style="edgeLabel;html=1;align=center;verticalAlign=middle;resizable=0;points=[];" vertex="1" connectable="0" parent="_FnlPTHiWod3dSxRK6xL-79">
          <mxGeometry x="0.6321" y="-4" relative="1" as="geometry">
            <mxPoint as="offset" />
          </mxGeometry>
        </mxCell>
        <mxCell id="jrzMalghxuSwKoNrNAVI-49" value="1" style="edgeLabel;html=1;align=center;verticalAlign=middle;resizable=0;points=[];" vertex="1" connectable="0" parent="_FnlPTHiWod3dSxRK6xL-79">
          <mxGeometry x="-0.7212" y="-1" relative="1" as="geometry">
            <mxPoint as="offset" />
          </mxGeometry>
        </mxCell>
        <mxCell id="BuSMUL9DYR4-gajgLUsj-12" style="rounded=0;orthogonalLoop=1;jettySize=auto;html=1;" parent="_FnlPTHiWod3dSxRK6xL-61" source="_FnlPTHiWod3dSxRK6xL-23" target="BuSMUL9DYR4-gajgLUsj-11" edge="1">
          <mxGeometry relative="1" as="geometry" />
        </mxCell>
        <mxCell id="jrzMalghxuSwKoNrNAVI-6" value="1" style="edgeLabel;html=1;align=center;verticalAlign=middle;resizable=0;points=[];" vertex="1" connectable="0" parent="BuSMUL9DYR4-gajgLUsj-12">
          <mxGeometry x="-0.7249" y="-4" relative="1" as="geometry">
            <mxPoint as="offset" />
          </mxGeometry>
        </mxCell>
        <mxCell id="jrzMalghxuSwKoNrNAVI-7" value="3" style="edgeLabel;html=1;align=center;verticalAlign=middle;resizable=0;points=[];" vertex="1" connectable="0" parent="BuSMUL9DYR4-gajgLUsj-12">
          <mxGeometry x="0.6644" y="-4" relative="1" as="geometry">
            <mxPoint as="offset" />
          </mxGeometry>
        </mxCell>
        <mxCell id="_FnlPTHiWod3dSxRK6xL-23" value="«Value Object»&lt;br&gt;&lt;b&gt;OperationType&lt;/b&gt;" style="html=1;whiteSpace=wrap;" parent="_FnlPTHiWod3dSxRK6xL-61" vertex="1">
          <mxGeometry x="572" y="144" width="120" height="50" as="geometry" />
        </mxCell>
        <mxCell id="_FnlPTHiWod3dSxRK6xL-62" value="«Value Object»&lt;br&gt;&lt;b&gt;OperationRequestID&lt;/b&gt;" style="html=1;whiteSpace=wrap;" parent="_FnlPTHiWod3dSxRK6xL-61" vertex="1">
          <mxGeometry x="48" y="70" width="130" height="50" as="geometry" />
        </mxCell>
        <mxCell id="_FnlPTHiWod3dSxRK6xL-65" value="«Value Object»&lt;br&gt;&lt;b&gt;Priority&lt;/b&gt;" style="html=1;whiteSpace=wrap;" parent="_FnlPTHiWod3dSxRK6xL-61" vertex="1">
          <mxGeometry x="76" y="204" width="130" height="50" as="geometry" />
        </mxCell>
        <mxCell id="_FnlPTHiWod3dSxRK6xL-76" value="«Value Object»&lt;br&gt;&lt;b&gt;OperationTypeID&lt;/b&gt;" style="html=1;whiteSpace=wrap;" parent="_FnlPTHiWod3dSxRK6xL-61" vertex="1">
          <mxGeometry x="284" y="286" width="130" height="50" as="geometry" />
        </mxCell>
        <mxCell id="_FnlPTHiWod3dSxRK6xL-77" value="«Value Object»&lt;br&gt;&lt;b&gt;Name&lt;/b&gt;" style="html=1;whiteSpace=wrap;" parent="_FnlPTHiWod3dSxRK6xL-61" vertex="1">
          <mxGeometry x="449" y="286" width="130" height="50" as="geometry" />
        </mxCell>
        <mxCell id="_FnlPTHiWod3dSxRK6xL-80" value="«Value Object»&lt;br&gt;&lt;b&gt;Estimated Duration&lt;/b&gt;" style="html=1;whiteSpace=wrap;" parent="_FnlPTHiWod3dSxRK6xL-61" vertex="1">
          <mxGeometry x="679" y="404" width="130" height="50" as="geometry" />
        </mxCell>
        <mxCell id="_FnlPTHiWod3dSxRK6xL-88" value="«Value Object»&lt;br&gt;&lt;b&gt;Deadline&lt;/b&gt;" style="html=1;whiteSpace=wrap;" parent="_FnlPTHiWod3dSxRK6xL-61" vertex="1">
          <mxGeometry x="762" y="11" width="120" height="50" as="geometry" />
        </mxCell>
        <mxCell id="BuSMUL9DYR4-gajgLUsj-5" style="rounded=0;orthogonalLoop=1;jettySize=auto;html=1;" parent="_FnlPTHiWod3dSxRK6xL-61" source="BuSMUL9DYR4-gajgLUsj-1" target="BuSMUL9DYR4-gajgLUsj-3" edge="1">
          <mxGeometry relative="1" as="geometry" />
        </mxCell>
        <mxCell id="jrzMalghxuSwKoNrNAVI-47" value="1" style="edgeLabel;html=1;align=center;verticalAlign=middle;resizable=0;points=[];" vertex="1" connectable="0" parent="BuSMUL9DYR4-gajgLUsj-5">
          <mxGeometry x="0.6518" y="3" relative="1" as="geometry">
            <mxPoint as="offset" />
          </mxGeometry>
        </mxCell>
        <mxCell id="BuSMUL9DYR4-gajgLUsj-1" value="«Value Object»&lt;br&gt;&lt;b&gt;RequiredStaff&lt;/b&gt;" style="html=1;whiteSpace=wrap;" parent="_FnlPTHiWod3dSxRK6xL-61" vertex="1">
          <mxGeometry x="857" y="156" width="130" height="50" as="geometry" />
        </mxCell>
        <mxCell id="BuSMUL9DYR4-gajgLUsj-3" value="«Value Object»&lt;br&gt;&lt;b&gt;Number&lt;/b&gt;" style="html=1;whiteSpace=wrap;" parent="_FnlPTHiWod3dSxRK6xL-61" vertex="1">
          <mxGeometry x="895" y="311" width="130" height="50" as="geometry" />
        </mxCell>
        <mxCell id="jrzMalghxuSwKoNrNAVI-4" style="rounded=0;orthogonalLoop=1;jettySize=auto;html=1;" edge="1" parent="_FnlPTHiWod3dSxRK6xL-61" source="BuSMUL9DYR4-gajgLUsj-11" target="BuSMUL9DYR4-gajgLUsj-1">
          <mxGeometry relative="1" as="geometry" />
        </mxCell>
        <mxCell id="jrzMalghxuSwKoNrNAVI-45" value="1*" style="edgeLabel;html=1;align=center;verticalAlign=middle;resizable=0;points=[];" vertex="1" connectable="0" parent="jrzMalghxuSwKoNrNAVI-4">
          <mxGeometry x="0.6486" y="3" relative="1" as="geometry">
            <mxPoint x="-6" y="2" as="offset" />
          </mxGeometry>
        </mxCell>
        <mxCell id="jrzMalghxuSwKoNrNAVI-5" style="rounded=0;orthogonalLoop=1;jettySize=auto;html=1;" edge="1" parent="_FnlPTHiWod3dSxRK6xL-61" source="BuSMUL9DYR4-gajgLUsj-11" target="_FnlPTHiWod3dSxRK6xL-80">
          <mxGeometry relative="1" as="geometry" />
        </mxCell>
        <mxCell id="jrzMalghxuSwKoNrNAVI-44" value="1" style="edgeLabel;html=1;align=center;verticalAlign=middle;resizable=0;points=[];" vertex="1" connectable="0" parent="jrzMalghxuSwKoNrNAVI-5">
          <mxGeometry x="0.6156" y="1" relative="1" as="geometry">
            <mxPoint as="offset" />
          </mxGeometry>
        </mxCell>
        <mxCell id="BuSMUL9DYR4-gajgLUsj-11" value="«Value Object»&lt;br&gt;&lt;b&gt;Phases&lt;/b&gt;" style="html=1;whiteSpace=wrap;" parent="_FnlPTHiWod3dSxRK6xL-61" vertex="1">
          <mxGeometry x="679" y="280" width="130" height="50" as="geometry" />
        </mxCell>
        <mxCell id="_FnlPTHiWod3dSxRK6xL-109" style="rounded=0;orthogonalLoop=1;jettySize=auto;html=1;" parent="1" source="_FnlPTHiWod3dSxRK6xL-22" target="_FnlPTHiWod3dSxRK6xL-21" edge="1">
          <mxGeometry relative="1" as="geometry" />
        </mxCell>
        <mxCell id="jrzMalghxuSwKoNrNAVI-30" value="1" style="edgeLabel;html=1;align=center;verticalAlign=middle;resizable=0;points=[];" vertex="1" connectable="0" parent="_FnlPTHiWod3dSxRK6xL-109">
          <mxGeometry x="0.9394" y="3" relative="1" as="geometry">
            <mxPoint as="offset" />
          </mxGeometry>
        </mxCell>
        <mxCell id="jrzMalghxuSwKoNrNAVI-32" value="1" style="edgeLabel;html=1;align=center;verticalAlign=middle;resizable=0;points=[];" vertex="1" connectable="0" parent="_FnlPTHiWod3dSxRK6xL-109">
          <mxGeometry x="-0.9465" y="-2" relative="1" as="geometry">
            <mxPoint as="offset" />
          </mxGeometry>
        </mxCell>
        <mxCell id="_FnlPTHiWod3dSxRK6xL-110" style="rounded=0;orthogonalLoop=1;jettySize=auto;html=1;" parent="1" source="_FnlPTHiWod3dSxRK6xL-22" target="BuSMUL9DYR4-gajgLUsj-9" edge="1">
          <mxGeometry relative="1" as="geometry" />
        </mxCell>
        <mxCell id="jrzMalghxuSwKoNrNAVI-31" value="1" style="edgeLabel;html=1;align=center;verticalAlign=middle;resizable=0;points=[];" vertex="1" connectable="0" parent="_FnlPTHiWod3dSxRK6xL-110">
          <mxGeometry x="0.9035" y="1" relative="1" as="geometry">
            <mxPoint as="offset" />
          </mxGeometry>
        </mxCell>
        <mxCell id="jrzMalghxuSwKoNrNAVI-33" value="1" style="edgeLabel;html=1;align=center;verticalAlign=middle;resizable=0;points=[];" vertex="1" connectable="0" parent="_FnlPTHiWod3dSxRK6xL-110">
          <mxGeometry x="-0.9318" y="2" relative="1" as="geometry">
            <mxPoint as="offset" />
          </mxGeometry>
        </mxCell>
        <mxCell id="_FnlPTHiWod3dSxRK6xL-112" style="rounded=0;orthogonalLoop=1;jettySize=auto;html=1;entryX=1;entryY=0.5;entryDx=0;entryDy=0;" parent="1" source="_FnlPTHiWod3dSxRK6xL-84" target="_FnlPTHiWod3dSxRK6xL-22" edge="1">
          <mxGeometry relative="1" as="geometry" />
        </mxCell>
        <mxCell id="jrzMalghxuSwKoNrNAVI-38" value="1" style="edgeLabel;html=1;align=center;verticalAlign=middle;resizable=0;points=[];" vertex="1" connectable="0" parent="_FnlPTHiWod3dSxRK6xL-112">
          <mxGeometry x="0.9491" y="5" relative="1" as="geometry">
            <mxPoint as="offset" />
          </mxGeometry>
        </mxCell>
        <mxCell id="jrzMalghxuSwKoNrNAVI-39" value="1" style="edgeLabel;html=1;align=center;verticalAlign=middle;resizable=0;points=[];" vertex="1" connectable="0" parent="_FnlPTHiWod3dSxRK6xL-112">
          <mxGeometry x="-0.9666" relative="1" as="geometry">
            <mxPoint as="offset" />
          </mxGeometry>
        </mxCell>
        <mxCell id="_FnlPTHiWod3dSxRK6xL-115" style="rounded=0;orthogonalLoop=1;jettySize=auto;html=1;" parent="1" source="_FnlPTHiWod3dSxRK6xL-84" target="_FnlPTHiWod3dSxRK6xL-25" edge="1">
          <mxGeometry relative="1" as="geometry" />
        </mxCell>
        <mxCell id="jrzMalghxuSwKoNrNAVI-62" value="1" style="edgeLabel;html=1;align=center;verticalAlign=middle;resizable=0;points=[];" vertex="1" connectable="0" parent="_FnlPTHiWod3dSxRK6xL-115">
          <mxGeometry x="-0.9101" y="-1" relative="1" as="geometry">
            <mxPoint as="offset" />
          </mxGeometry>
        </mxCell>
        <mxCell id="jrzMalghxuSwKoNrNAVI-63" value="1" style="edgeLabel;html=1;align=center;verticalAlign=middle;resizable=0;points=[];" vertex="1" connectable="0" parent="_FnlPTHiWod3dSxRK6xL-115">
          <mxGeometry x="0.8849" y="-2" relative="1" as="geometry">
            <mxPoint as="offset" />
          </mxGeometry>
        </mxCell>
        <mxCell id="_FnlPTHiWod3dSxRK6xL-116" value="User" style="shape=umlFrame;whiteSpace=wrap;html=1;pointerEvents=0;recursiveResize=0;container=1;collapsible=0;width=160;" parent="1" vertex="1">
          <mxGeometry x="748" y="-169" width="430" height="382" as="geometry" />
        </mxCell>
        <mxCell id="_FnlPTHiWod3dSxRK6xL-119" style="rounded=0;orthogonalLoop=1;jettySize=auto;html=1;" parent="_FnlPTHiWod3dSxRK6xL-116" source="_FnlPTHiWod3dSxRK6xL-117" target="_FnlPTHiWod3dSxRK6xL-118" edge="1">
          <mxGeometry relative="1" as="geometry" />
        </mxCell>
        <mxCell id="jrzMalghxuSwKoNrNAVI-14" value="1" style="edgeLabel;html=1;align=center;verticalAlign=middle;resizable=0;points=[];" vertex="1" connectable="0" parent="_FnlPTHiWod3dSxRK6xL-119">
          <mxGeometry x="0.6328" y="2" relative="1" as="geometry">
            <mxPoint as="offset" />
          </mxGeometry>
        </mxCell>
        <mxCell id="UAZd34P3n4XGrMGV5Igo-4" style="rounded=0;orthogonalLoop=1;jettySize=auto;html=1;" parent="_FnlPTHiWod3dSxRK6xL-116" source="_FnlPTHiWod3dSxRK6xL-117" target="UAZd34P3n4XGrMGV5Igo-3" edge="1">
          <mxGeometry relative="1" as="geometry">
            <mxPoint x="245" y="120" as="targetPoint" />
          </mxGeometry>
        </mxCell>
        <mxCell id="jrzMalghxuSwKoNrNAVI-15" value="1" style="edgeLabel;html=1;align=center;verticalAlign=middle;resizable=0;points=[];" vertex="1" connectable="0" parent="UAZd34P3n4XGrMGV5Igo-4">
          <mxGeometry x="0.7441" relative="1" as="geometry">
            <mxPoint as="offset" />
          </mxGeometry>
        </mxCell>
        <mxCell id="_FnlPTHiWod3dSxRK6xL-117" value="«Root»&lt;br&gt;«Entity»&lt;br&gt;&lt;b&gt;User&lt;/b&gt;" style="html=1;whiteSpace=wrap;" parent="_FnlPTHiWod3dSxRK6xL-116" vertex="1">
          <mxGeometry x="20" y="90" width="150" height="60" as="geometry" />
        </mxCell>
        <mxCell id="_FnlPTHiWod3dSxRK6xL-118" value="«Value Object»&lt;br&gt;&lt;b&gt;User Role&lt;/b&gt;" style="html=1;whiteSpace=wrap;" parent="_FnlPTHiWod3dSxRK6xL-116" vertex="1">
          <mxGeometry x="245" y="30" width="120" height="50" as="geometry" />
        </mxCell>
        <mxCell id="UAZd34P3n4XGrMGV5Igo-3" value="«Value Object»&lt;br&gt;&lt;b&gt;Password&lt;/b&gt;" style="html=1;whiteSpace=wrap;" parent="_FnlPTHiWod3dSxRK6xL-116" vertex="1">
          <mxGeometry x="256" y="116" width="120" height="50" as="geometry" />
        </mxCell>
        <mxCell id="_FnlPTHiWod3dSxRK6xL-121" style="rounded=0;orthogonalLoop=1;jettySize=auto;html=1;" parent="1" source="_FnlPTHiWod3dSxRK6xL-21" target="_FnlPTHiWod3dSxRK6xL-117" edge="1">
          <mxGeometry relative="1" as="geometry" />
        </mxCell>
        <mxCell id="jrzMalghxuSwKoNrNAVI-13" value="1" style="edgeLabel;html=1;align=center;verticalAlign=middle;resizable=0;points=[];" vertex="1" connectable="0" parent="_FnlPTHiWod3dSxRK6xL-121">
          <mxGeometry x="0.9079" y="-1" relative="1" as="geometry">
            <mxPoint as="offset" />
          </mxGeometry>
        </mxCell>
        <mxCell id="_FnlPTHiWod3dSxRK6xL-122" style="rounded=0;orthogonalLoop=1;jettySize=auto;html=1;entryX=1;entryY=1;entryDx=0;entryDy=0;" parent="1" source="_FnlPTHiWod3dSxRK6xL-20" target="_FnlPTHiWod3dSxRK6xL-117" edge="1">
          <mxGeometry relative="1" as="geometry" />
        </mxCell>
        <mxCell id="jrzMalghxuSwKoNrNAVI-17" value="1" style="edgeLabel;html=1;align=center;verticalAlign=middle;resizable=0;points=[];" vertex="1" connectable="0" parent="_FnlPTHiWod3dSxRK6xL-122">
          <mxGeometry x="-0.9295" y="1" relative="1" as="geometry">
            <mxPoint as="offset" />
          </mxGeometry>
        </mxCell>
        <mxCell id="jrzMalghxuSwKoNrNAVI-18" value="1" style="edgeLabel;html=1;align=center;verticalAlign=middle;resizable=0;points=[];" vertex="1" connectable="0" parent="_FnlPTHiWod3dSxRK6xL-122">
          <mxGeometry x="0.9012" y="-3" relative="1" as="geometry">
            <mxPoint as="offset" />
          </mxGeometry>
        </mxCell>
        <mxCell id="BuSMUL9DYR4-gajgLUsj-4" style="rounded=0;orthogonalLoop=1;jettySize=auto;html=1;" parent="1" source="BuSMUL9DYR4-gajgLUsj-1" target="_FnlPTHiWod3dSxRK6xL-49" edge="1">
          <mxGeometry relative="1" as="geometry" />
        </mxCell>
        <mxCell id="jrzMalghxuSwKoNrNAVI-46" value="1" style="edgeLabel;html=1;align=center;verticalAlign=middle;resizable=0;points=[];" vertex="1" connectable="0" parent="BuSMUL9DYR4-gajgLUsj-4">
          <mxGeometry x="0.9135" y="-1" relative="1" as="geometry">
            <mxPoint as="offset" />
          </mxGeometry>
        </mxCell>
        <mxCell id="o6evxd8uxwhw9Y35Vhtc-13" value="1" style="text;html=1;align=center;verticalAlign=middle;resizable=0;points=[];autosize=1;strokeColor=none;fillColor=none;" parent="1" vertex="1">
          <mxGeometry x="509" y="235" width="25" height="26" as="geometry" />
        </mxCell>
        <mxCell id="o6evxd8uxwhw9Y35Vhtc-14" value="1" style="text;html=1;align=center;verticalAlign=middle;resizable=0;points=[];autosize=1;strokeColor=none;fillColor=none;" parent="1" vertex="1">
          <mxGeometry x="506" y="283" width="25" height="26" as="geometry" />
        </mxCell>
        <mxCell id="o6evxd8uxwhw9Y35Vhtc-16" value="1" style="text;html=1;align=center;verticalAlign=middle;resizable=0;points=[];autosize=1;strokeColor=none;fillColor=none;" parent="1" vertex="1">
          <mxGeometry x="505" y="260" width="25" height="26" as="geometry" />
        </mxCell>
        <mxCell id="o6evxd8uxwhw9Y35Vhtc-32" style="rounded=0;orthogonalLoop=1;jettySize=auto;html=1;" parent="1" source="_FnlPTHiWod3dSxRK6xL-117" target="_FnlPTHiWod3dSxRK6xL-30" edge="1">
          <mxGeometry relative="1" as="geometry" />
        </mxCell>
        <mxCell id="jrzMalghxuSwKoNrNAVI-16" value="1" style="edgeLabel;html=1;align=center;verticalAlign=middle;resizable=0;points=[];" vertex="1" connectable="0" parent="o6evxd8uxwhw9Y35Vhtc-32">
          <mxGeometry x="0.8041" relative="1" as="geometry">
            <mxPoint as="offset" />
          </mxGeometry>
        </mxCell>
      </root>
    </mxGraphModel>
  </diagram>
</mxfile>
